<?xml version="1.0" encoding="UTF-8" standalone="no"?>
<!DOCTYPE svg PUBLIC "-//W3C//DTD SVG 1.1//EN" "http://www.w3.org/Graphics/SVG/1.1/DTD/svg11.dtd">
<svg width="100%" height="100%" viewBox="0 0 186 213" version="1.1" xmlns="http://www.w3.org/2000/svg" xmlns:xlink="http://www.w3.org/1999/xlink" xml:space="preserve" xmlns:serif="http://www.serif.com/" style="fill-rule:evenodd;clip-rule:evenodd;stroke-linejoin:round;stroke-miterlimit:2;">
    <g transform="matrix(1,0,0,1,-281.088,-689.811)">
        <g transform="matrix(1,0,0,1,0,645.521)">
            <g id="Logo" transform="matrix(1,0,0,1,-149.207,-156.392)">
                <path d="M430.62,256.795C430.616,256.876 430.615,256.957 430.615,257.039L430.615,354.378C429.694,357.137 430.797,360.261 433.408,361.786L519.218,411.916C520.337,412.57 521.575,412.838 522.78,412.761C523.983,412.846 525.223,412.586 526.347,411.939L612.477,362.361C612.95,362.089 613.374,361.764 613.746,361.398C615.238,360.249 616.199,358.446 616.199,356.419L616.199,257.039C616.199,254.195 614.305,251.789 611.71,251.017L527.022,201.542C525.903,200.889 524.665,200.621 523.461,200.697C522.257,200.613 521.017,200.873 519.894,201.52L433.763,251.098C431.669,252.303 430.532,254.535 430.62,256.795Z" style="fill:rgb(255,53,95);"/>
                <path d="M501.795,260.502C500.26,261.357 499.566,261.828 499.566,263.044L499.566,287.678C499.304,289.934 504.836,291.766 508.873,289.189L535.936,273.159L535.936,282.533L518.758,292.708C517.591,293.399 517.205,294.907 517.896,296.074L520.401,300.302C521.092,301.468 522.6,301.854 523.767,301.163L544.559,288.847C545.523,288.193 545.754,287.972 545.747,286.444C545.758,286.349 545.791,269.351 545.851,264.4C545.878,262.175 545.9,262.168 543.764,260.299C542.71,259.377 541.485,258.244 540.006,259.325L509.393,277.459L509.393,267.423L540.423,249.043L553.942,256.734L553.942,292.713L522.07,310.818C518.154,313.015 518.333,314.195 518.333,315.536L518.333,355.552L500.771,365.955C499.604,366.646 499.218,368.155 499.909,369.321L502.413,373.549C503.104,374.716 504.612,375.102 505.779,374.411L526.571,362.094C528.267,361.051 528.081,360.396 528.161,358.51L528.161,319.407C528.161,319.407 561.739,299.491 562.361,299.238C563.258,298.872 563.769,297.847 563.769,296.818L563.769,253.142C563.795,251.98 562.831,250.57 561.634,249.803L542.038,238.655C540.772,237.961 540.078,237.965 538.641,238.676L501.795,260.502ZM482.761,250.816C481.516,251.48 481.095,252.063 481.095,253.142L481.095,358.51C481.095,360.34 483.897,363.004 483.897,363.004C484.956,364.069 486.096,364.332 487.426,363.682L508.219,351.365C509.448,350.596 509.38,350.118 509.393,347.656L509.393,302.457C509.393,301.101 508.292,300 506.936,300L502.023,300C500.667,300 499.566,301.101 499.566,302.457L499.566,345.069L490.923,350.189L490.923,257.403L508.462,247.014C509.629,246.322 510.015,244.814 509.324,243.648L506.82,239.42C506.129,238.253 504.62,237.867 503.454,238.558L482.761,250.816Z" style="fill:rgb(228,228,228);"/>
            </g>
        </g>
    </g>
</svg>
